<svg width="16" height="16" viewBox="0 0 16 16" fill="none" xmlns="http://www.w3.org/2000/svg">
<path d="M13.7079 4.20385C13.7079 4.20385 13.7079 4.20385 13.7079 4.20385C13.4164 4.1601 12.8656 4.2264 11.4536 5.30081C11.3007 5.41711 11.1003 5.4526 10.9176 5.39575L8.64871 4.68994C7.61308 4.33917 6.24402 4.84148 5.29441 5.39457C4.52834 5.84072 3.02712 6.90542 3.65833 7.52906C4.12223 7.98737 5.23067 7.29882 6.60368 7.09117C6.94414 7.03971 7.12822 7.05685 7.22255 7.08015C6.87064 8.42699 3.02417 13.1623 2.10341 14.2605C1.8327 14.5837 2.13357 15.0669 2.54305 14.9663C4.50307 14.4854 6.11783 13.0798 7.27998 11.7535C8.33642 11.7324 8.69897 11.9258 8.74945 12.0069C8.895 12.2408 8.77704 12.9309 8.699 13.3875C8.58429 14.0587 8.49367 14.5888 8.84163 14.8773C9.02664 15.0307 9.26945 15.0342 9.48429 14.9219C10.1593 14.569 11.3782 12.3993 11.2828 11.2773C11.204 10.3513 9.85027 9.79001 8.96637 9.50754C9.24186 9.08981 9.53089 8.71117 9.73985 7.73884C10.3336 7.87994 11.2118 8.06093 11.6517 7.995C12.1293 7.92342 12.7688 7.21966 13.2211 6.64188C13.5854 6.1764 14.1968 5.3173 14.1968 4.79352C14.1967 4.48464 14.0003 4.24768 13.7079 4.20385ZM9.71062 10.7488C10.2118 11.0093 10.4011 11.2362 10.4109 11.3515C10.4611 11.9412 9.89766 13.0449 9.55607 13.5668C9.66496 12.9292 9.82675 12.0818 9.49231 11.5445C9.26232 11.1751 8.76528 10.9609 7.98258 10.897C8.15368 10.6748 8.30962 10.4623 8.44965 10.2651C8.91986 10.3995 9.36792 10.5707 9.71062 10.7488ZM11.509 7.13136C11.2985 7.1557 10.6647 7.07542 9.49526 6.77666C9.23995 6.71136 8.98365 6.88565 8.95248 7.14917C8.87638 7.7926 8.64836 8.40771 8.46245 8.68276C8.20645 9.0614 7.625 10.0044 6.74067 11.0375C5.91715 11.9993 4.95379 12.9037 3.8408 13.517C4.92653 12.1658 6.60595 10.0099 7.48801 8.52726C8.04616 7.58916 8.33267 6.88278 7.91682 6.48465C7.30221 5.89626 5.95983 6.30762 5.12428 6.54959C5.96169 5.93432 7.39335 5.21916 8.38323 5.52372L10.6576 6.23125C11.1101 6.37202 11.6057 6.28454 11.9834 5.99713C12.4845 5.61584 12.8581 5.38066 13.1203 5.24251C12.6609 6.04564 11.7962 7.01433 11.509 7.13136Z" fill="#99A2AD"/>
<path d="M9.55395 4.61404C10.551 4.61404 11.3623 3.8034 11.3623 2.80703C11.3623 1.81064 10.551 1 9.55395 1C8.55682 1 7.74561 1.81064 7.74561 2.80703C7.74561 3.8034 8.55682 4.61404 9.55395 4.61404ZM9.55395 1.87501C10.0686 1.87501 10.4873 2.2931 10.4873 2.80703C10.4873 3.32094 10.0686 3.73903 9.55395 3.73903C9.03933 3.73903 8.62061 3.32094 8.62061 2.80703C8.62061 2.2931 9.0393 1.87501 9.55395 1.87501Z" fill="#99A2AD"/>
</svg>