<svg width="18" height="18" viewBox="0 0 18 18" fill="none" xmlns="http://www.w3.org/2000/svg">
<path fill-rule="evenodd" clip-rule="evenodd" d="M8.16699 1.60449C7.13146 1.60449 6.29199 2.44396 6.29199 3.47949V4.31283C6.29199 4.658 6.01217 4.93783 5.66699 4.93783C5.32181 4.93783 5.04199 4.658 5.04199 4.31283V3.47949C5.04199 1.7536 6.4411 0.354492 8.16699 0.354492H9.83366C11.5595 0.354492 12.9587 1.7536 12.9587 3.47949V4.31283C12.9587 4.658 12.6788 4.93783 12.3337 4.93783C11.9885 4.93783 11.7087 4.658 11.7087 4.31283V3.47949C11.7087 2.44396 10.8692 1.60449 9.83366 1.60449H8.16699Z" fill="#2464AC"/>
<path d="M4.00033 4.3125H14.0003C15.8413 4.3125 17.3337 5.80488 17.3337 7.64583C17.3337 7.64583 15.382 9.55578 10.4359 9.76945C10.33 9.77403 10.2392 9.69359 10.2138 9.59069C10.079 9.04585 9.58682 8.64193 9.00033 8.64193C8.43159 8.64193 7.95157 9.02175 7.80009 9.54158C7.77054 9.64299 7.67713 9.7195 7.57182 9.71128C2.61567 9.32399 0.666992 7.64583 0.666992 7.64583C0.666992 5.80488 2.15938 4.3125 4.00033 4.3125Z" fill="#2464AC"/>
<path d="M7.75033 10.913C7.75033 10.8079 7.66782 10.7208 7.5631 10.7127C3.67468 10.4131 1.49885 9.38931 0.666992 8.90634V14.3125C0.666992 16.1535 2.15938 17.6458 4.00033 17.6458H14.0003C15.8413 17.6458 17.3337 16.1535 17.3337 14.3125V8.94114C16.5001 9.48739 14.3198 10.6275 10.4443 10.8023C10.3368 10.8071 10.2503 10.8954 10.2503 11.003V11.0586C10.2503 11.7489 9.69068 12.3086 9.00033 12.3086C8.30997 12.3086 7.75033 11.7489 7.75033 11.0586V10.913Z" fill="#2464AC"/>
<rect x="8.375" y="9.3125" width="1.25" height="2.32836" rx="0.625" fill="#2464AC"/>
</svg>
