<svg width="16" height="16" viewBox="0 0 16 16" fill="none" xmlns="http://www.w3.org/2000/svg">
<path fill-rule="evenodd" clip-rule="evenodd" d="M1.33341 2C0.965225 2 0.666748 2.29848 0.666748 2.66667C0.666748 3.03486 0.965225 3.33333 1.33341 3.33333H2.47956L2.68281 4.1463L4.01303 10.7974C4.07535 11.109 4.34896 11.3333 4.66675 11.3333H12.0001C12.3179 11.3333 12.5915 11.109 12.6538 10.7974L13.9871 4.13074C14.0263 3.93489 13.9756 3.7318 13.849 3.57734C13.7224 3.42288 13.5331 3.33333 13.3334 3.33333H3.85393L3.64684 2.50498C3.57265 2.2082 3.30599 2 3.00008 2H1.33341ZM10.6667 12C9.93037 12 9.33341 12.597 9.33341 13.3333C9.33341 14.0697 9.93037 14.6667 10.6667 14.6667C11.4031 14.6667 12.0001 14.0697 12.0001 13.3333C12.0001 12.597 11.4031 12 10.6667 12ZM6.00008 12C5.2637 12 4.66675 12.597 4.66675 13.3333C4.66675 14.0697 5.2637 14.6667 6.00008 14.6667C6.73646 14.6667 7.33342 14.0697 7.33342 13.3333C7.33342 12.597 6.73646 12 6.00008 12Z" fill="currentColor"/>
</svg>
