<svg width="26" height="22" viewBox="0 0 26 22" fill="none" xmlns="http://www.w3.org/2000/svg">
<path d="M20.4451 15.9491H11.002C9.64028 15.9491 8.43286 15.0556 8.06433 13.7758L4.87255 2.96046C4.75916 2.56883 4.38224 2.30005 3.95177 2.30005H1.45084C0.870227 2.30005 0.400909 1.82968 0.400909 1.25012C0.400909 0.670563 0.870227 0.200195 1.45084 0.200195H3.95177C5.31352 0.200195 6.51989 1.09368 6.88842 2.37355L7.48583 4.39991H23.5445C24.1996 4.39991 24.8212 4.71174 25.2065 5.2346C25.5887 5.75327 25.6989 6.40212 25.5089 7.01528L23.3429 13.8902C22.9187 15.1312 21.7564 15.9491 20.4451 15.9491ZM23.5455 6.49977H23.556H23.5455Z" fill="#483B7A"/>
<path d="M11.9501 21.1983C10.7921 21.1983 9.85028 20.2565 9.85028 19.0984C9.85028 17.9403 10.7921 16.9985 11.9501 16.9985C13.1082 16.9985 14.05 17.9403 14.05 19.0984C14.05 20.2565 13.1082 21.1983 11.9501 21.1983ZM11.9501 19.0974V19.0984V19.0974Z" fill="#483B7A"/>
<path d="M19.2996 21.1983C18.1416 21.1983 17.1998 20.2565 17.1998 19.0984C17.1998 17.9403 18.1416 16.9985 19.2996 16.9985C20.4577 16.9985 21.3995 17.9403 21.3995 19.0984C21.3995 20.2565 20.4577 21.1983 19.2996 21.1983ZM19.2996 19.0974V19.0984V19.0974Z" fill="#483B7A"/>
</svg>
