<svg width="20" height="20" viewBox="0 0 20 20" fill="none" xmlns="http://www.w3.org/2000/svg">
<path d="M6.03335 1.66675H4.45002C2.62502 1.66675 1.66669 2.62508 1.66669 4.44175V6.02508C1.66669 7.84175 2.62502 8.80008 4.44169 8.80008H6.02502C7.84169 8.80008 8.80002 7.84175 8.80002 6.02508V4.44175C8.80835 2.62508 7.85002 1.66675 6.03335 1.66675Z" fill="#2464AD"/>
<path d="M15.5583 1.66675H13.975C12.1583 1.66675 11.2 2.62508 11.2 4.44175V6.02508C11.2 7.84175 12.1583 8.80008 13.975 8.80008H15.5583C17.375 8.80008 18.3333 7.84175 18.3333 6.02508V4.44175C18.3333 2.62508 17.375 1.66675 15.5583 1.66675Z" fill="#2464AD"/>
<path d="M15.5583 11.1917H13.975C12.1583 11.1917 11.2 12.15 11.2 13.9667V15.55C11.2 17.3667 12.1583 18.325 13.975 18.325H15.5583C17.375 18.325 18.3333 17.3667 18.3333 15.55V13.9667C18.3333 12.15 17.375 11.1917 15.5583 11.1917Z" fill="#2464AD"/>
<path d="M6.03335 11.1917H4.45002C2.62502 11.1917 1.66669 12.15 1.66669 13.9667V15.55C1.66669 17.375 2.62502 18.3333 4.44169 18.3333H6.02502C7.84169 18.3333 8.80002 17.375 8.80002 15.5583V13.975C8.80835 12.15 7.85002 11.1917 6.03335 11.1917Z" fill="#2464AD"/>
</svg>
