<svg width="20" height="20" viewBox="0 0 20 20" fill="none" xmlns="http://www.w3.org/2000/svg">
<path d="M10.7417 4.8999H4.25833C2.83333 4.8999 1.66666 6.06657 1.66666 7.49157V16.9582C1.66666 18.1666 2.53333 18.6832 3.59166 18.0916L6.86666 16.2666C7.21666 16.0749 7.78333 16.0749 8.125 16.2666L11.4 18.0916C12.4667 18.6749 13.3333 18.1666 13.3333 16.9582V7.49157C13.3333 6.06657 12.1667 4.8999 10.7417 4.8999Z" fill="#19A648"/>
<path d="M18.3333 4.25841V13.7251C18.3333 14.9334 17.4667 15.4417 16.4083 14.8584L14.8 13.9584C14.6667 13.8834 14.5833 13.7417 14.5833 13.5917V7.49175C14.5833 5.37508 12.8583 3.65008 10.7417 3.65008H7.35C7.04167 3.65008 6.825 3.32508 6.96667 3.05841C7.4 2.23341 8.26667 1.66675 9.25833 1.66675H15.7417C17.1667 1.66675 18.3333 2.83341 18.3333 4.25841Z" fill="#19A648"/>
</svg>
