<svg width="16" height="16" viewBox="0 0 16 16" fill="none" xmlns="http://www.w3.org/2000/svg">
<path d="M11.3333 1.62H4.66659C2.66659 1.62 1.33325 2.95333 1.33325 4.95333V8.95333C1.33325 10.9533 2.66659 12.2867 4.66659 12.2867H7.33325L10.2999 14.26C10.7399 14.5533 11.3333 14.24 11.3333 13.7067V12.2867C13.3333 12.2867 14.6666 10.9533 14.6666 8.95333V4.95333C14.6666 2.95333 13.3333 1.62 11.3333 1.62ZM10.3333 7.49999H5.66659C5.39325 7.49999 5.16659 7.27333 5.16659 6.99999C5.16659 6.72666 5.39325 6.49999 5.66659 6.49999H10.3333C10.6066 6.49999 10.8333 6.72666 10.8333 6.99999C10.8333 7.27333 10.6066 7.49999 10.3333 7.49999Z" fill="#D0D5DD"/>
</svg>
