<svg width="20" height="20" viewBox="0 0 20 20" fill="none" xmlns="http://www.w3.org/2000/svg">
<path d="M10 16.6666L9.51436 17.5408C9.81638 17.7086 10.1836 17.7086 10.4856 17.5408L10 16.6666ZM10 16.6666C10.4856 17.5408 10.4859 17.5406 10.4862 17.5405L10.487 17.54L10.4891 17.5389L10.4952 17.5355L10.5155 17.524C10.5325 17.5143 10.5565 17.5006 10.5869 17.4829C10.6478 17.4475 10.7346 17.3962 10.8437 17.3295C11.0618 17.1962 11.3695 17.0013 11.7371 16.7494C12.4704 16.247 13.4515 15.5116 14.4366 14.5812C16.3689 12.7562 18.5 10.0071 18.5 6.66665C18.5 5.95107 18.2936 4.89996 17.6449 3.99901C16.9595 3.04707 15.8259 2.33331 14.1667 2.33331C12.5369 2.33331 11.2522 3.01733 10.3833 3.86924C10.2478 4.00201 10.1197 4.14187 10 4.28694C9.88033 4.14187 9.75216 4.00201 9.61674 3.86924C8.74779 3.01733 7.46314 2.33331 5.83333 2.33331C4.17408 2.33331 3.04053 3.04707 2.35513 3.99901C1.70645 4.89996 1.5 5.95107 1.5 6.66665C1.5 10.0071 3.6311 12.7562 5.56338 14.5812C6.54854 15.5116 7.52961 16.247 8.26289 16.7494C8.63047 17.0013 8.93821 17.1962 9.15628 17.3295C9.26538 17.3962 9.35222 17.4475 9.4131 17.4829C9.44354 17.5006 9.4675 17.5143 9.48453 17.524L9.50481 17.5355L9.51095 17.5389L9.513 17.54L9.51376 17.5405C9.51407 17.5406 9.51436 17.5408 10 16.6666Z" fill="white" stroke="white" stroke-width="2" stroke-linecap="round" stroke-linejoin="round"/>
<path d="M14.1667 3.33331C11.5 3.33331 10 5.55554 10 6.66665C10 5.55554 8.5 3.33331 5.83333 3.33331C3.16667 3.33331 2.5 5.55554 2.5 6.66665C2.5 12.5 10 16.6666 10 16.6666C10 16.6666 17.5 12.5 17.5 6.66665C17.5 5.55554 16.8333 3.33331 14.1667 3.33331Z" fill="white" stroke="currentColor" stroke-width="2" stroke-linecap="round" stroke-linejoin="round"/>
</svg>
