<svg width="52" height="52" viewBox="0 0 52 52" fill="none" xmlns="http://www.w3.org/2000/svg">
<path d="M18.5031 44.1723L18.5033 44.1726C20.6083 46.1981 23.3042 47.2082 26 47.2082C28.6965 47.2082 31.3903 46.1977 33.4715 44.1759L33.4752 44.1723C39.617 38.2668 46.1129 29.166 43.7015 18.5298C41.5542 9.08167 33.3219 4.7915 26 4.7915H25.9999H25.9999H25.9999H25.9999H25.9999H25.9999H25.9999H25.9998H25.9998H25.9998H25.9998H25.9998H25.9998H25.9997H25.9997H25.9997H25.9997H25.9997H25.9996H25.9996H25.9996H25.9996H25.9996H25.9996H25.9995H25.9995H25.9995H25.9995H25.9995H25.9994H25.9994H25.9994H25.9994H25.9994H25.9993H25.9993H25.9993H25.9993H25.9992H25.9992H25.9992H25.9992H25.9991H25.9991H25.9991H25.9991H25.9991H25.9991H25.999H25.999H25.999H25.999H25.999H25.999H25.9989H25.9989H25.9989H25.9989H25.9989H25.9989H25.9988H25.9988H25.9988H25.9988H25.9988H25.9987H25.9987H25.9987H25.9987H25.9987H25.9986H25.9986H25.9986H25.9986H25.9986H25.9986H25.9985H25.9985H25.9985H25.9985H25.9984H25.9984H25.9984H25.9984H25.9984H25.9983H25.9983H25.9983H25.9983H25.9982H25.9982H25.9982H25.9982H25.9981H25.9981H25.9981H25.9981H25.998H25.998H25.998H25.998H25.9979H25.9979H25.9979H25.9979H25.9978H25.9978H25.9978H25.9978H25.9977H25.9977H25.9977H25.9976H25.9976H25.9976H25.9976H25.9975H25.9975H25.9975H25.9974H25.9974H25.9974H25.9973H25.9973H25.9973H25.9973H25.9972H25.9972H25.9972H25.9971H25.9971H25.9971H25.997H25.997H25.997H25.9969H25.9969H25.9969H25.9968H25.9968H25.9967H25.9967H25.9967H25.9966H25.9966H25.9966H25.9965H25.9965H25.9965H25.9964H25.9964H25.9963H25.9963H25.9963H25.9962H25.9962H25.9961H25.9961H25.9961H25.996H25.996H25.9959H25.9959H25.9959H25.9958H25.9958H25.9957H25.9957H25.9956H25.9956H25.9956H25.9955H25.9955H25.9954H25.9954H25.9953H25.9953H25.9952H25.9952H25.9952H25.9951H25.9951H25.995H25.995H25.9949H25.9949H25.9948H25.9948H25.9947H25.9947H25.9946H25.9946H25.9945H25.9945H25.9944H25.9944H25.9943H25.9943H25.9942H25.9942H25.9941H25.9941H25.994H25.9939H25.9939H25.9938H25.9938H25.9937H25.9937H25.9936H25.9936H25.9935H25.9934H25.9934H25.9933H25.9933H25.9932H25.9932H25.9931H25.993H25.993H25.9929H25.9929H25.9928H25.9927H25.9927H25.9926H25.9926H25.9925H25.9924H25.9924H25.9923H25.9922H25.9922H25.9921H25.992H25.992H25.9919H25.9918H25.9918H25.9917H25.9916H25.9916H25.9915H25.9914H25.9914H25.9913H25.9912H25.9912H25.9911H25.991H25.991H25.9909H25.9908H25.9907H25.9907H25.9906H25.9905H25.9905H25.9904H25.9903H25.9902H25.9902H25.9901H25.99H25.9899H25.9899H25.9898H25.9897H25.9896H25.9896H25.9895H25.9894H25.9893H25.9892H25.9892H25.9891H25.989H25.9889H25.9888H25.9888H25.9887H25.9886H25.9885H25.9884H25.9883H25.9883H25.9882H25.9881H25.988H25.9879H25.9878H25.9877H25.9877H25.9876H25.9875H25.9874H25.9873H25.9872H25.9871H25.987H25.9869H25.9869H25.9868H25.9867H25.9866H25.9865H25.9864H25.9863H25.9862H25.9861H25.986H25.9859H25.9858H25.9857H25.9856H25.9855H25.9854H25.9853H25.9853H25.9852H25.9851H25.985H25.9849H25.9848H25.9847H25.9846H25.9845H25.9844H25.9842H25.9841H25.984H25.9839H25.9838H25.9837H25.9836H25.9835H25.9834H25.9833H25.9832H25.9831H25.983H25.9829H25.9828H25.9827H25.9826H25.9824H25.9823H25.9822H25.9821H25.982H25.9819H25.9818H25.9817H25.9815H25.9814H25.9813H25.9812H25.9811H25.981H25.9809H25.9807H25.9806H25.9805H25.9804H25.9803H25.9801H25.98H25.9799H25.9798H25.9797H25.9795H25.9794H25.9793H25.9792H25.979H25.9789H25.9788H25.9787H25.9785H25.9784H25.9783C18.6755 4.7915 10.4239 9.06204 8.27687 18.5076L18.5031 44.1723ZM18.5031 44.1723C12.3619 38.2674 5.86522 29.1448 8.27676 18.5081L18.5031 44.1723ZM18.175 22.3382C18.175 26.6605 21.6777 30.1632 26 30.1632C30.3222 30.1632 33.825 26.6605 33.825 22.3382C33.825 18.0159 30.3222 14.5132 26 14.5132C21.6777 14.5132 18.175 18.0159 18.175 22.3382Z" fill="#D92D20" stroke="white" stroke-width="2"/>
<circle cx="26" cy="22" r="10" fill="#D92D20"/>
<path d="M32.8808 15.764C31.0122 15.4136 29.1436 15.8029 27.5864 16.8929C27.4307 17.0097 27.2749 17.1265 27.1192 17.2433V14.2457C27.1192 13.545 26.5742 13 25.8735 13C25.1727 13 24.6277 13.545 24.6277 14.2457V17.2433C24.472 17.1265 24.3163 17.0097 24.1217 16.8929C22.5645 15.8418 20.6959 15.4136 18.8273 15.764C16.0243 16.2701 14 18.7226 14 21.5255C14 24.9903 16.7251 27.0925 19.2555 27.0925C21.8637 27.0925 23.5377 25.6521 23.5377 23.4331C23.5377 21.5645 22.253 20.2019 20.5012 20.2019C19.0219 20.2019 17.9319 20.9027 17.9319 22.3041C17.9319 23.3552 18.5937 23.8613 19.2944 23.8613C20.073 23.8613 20.3844 23.3552 20.4234 22.6934H20.5401C20.6959 22.6934 21.1241 22.6934 21.1241 23.4331C21.1241 24.2506 20.5012 24.6399 19.3333 24.6399C18.438 24.6399 16.5693 23.9392 16.5693 21.4477C16.5693 19.6959 18.1655 18.1387 20.2676 18.1387C22.6034 18.1387 24.6667 19.8516 24.6667 22.6545V31.8419C24.6667 32.5426 25.2117 33.0876 25.9124 33.0876C26.6131 33.0876 27.1582 32.5426 27.1582 31.8419V22.6545C27.1582 19.8905 29.2214 18.1387 31.5572 18.1387C33.6594 18.1387 35.2555 19.6959 35.2555 21.4477C35.2555 23.9392 33.3869 24.6399 32.4915 24.6399C31.2847 24.6399 30.7007 24.2506 30.7007 23.4331C30.7007 22.6934 31.129 22.6934 31.2847 22.6934H31.3625C31.4015 23.3552 31.7129 23.8613 32.4915 23.8613C33.1922 23.8613 33.854 23.3552 33.854 22.3041C33.854 20.9416 32.764 20.2019 31.2847 20.2019C29.5328 20.2019 28.2482 21.5645 28.2482 23.4331C28.2482 25.6521 29.9221 27.0925 32.5304 27.0925C35.0608 27.0925 37.7859 24.9513 37.7859 21.5255C37.708 18.6837 35.6837 16.2701 32.8808 15.764Z" fill="white"/>
</svg>
