<svg width="24" height="24" viewBox="0 0 24 24" fill="none" xmlns="http://www.w3.org/2000/svg">
<path d="M12 7.63633C9.58908 7.63633 7.63639 9.58908 7.63639 11.9999C7.63639 14.4108 9.58908 16.3636 12 16.3636C14.4109 16.3636 16.3636 14.4109 16.3636 12C16.3636 9.58913 14.4109 7.63633 12 7.63633ZM21.7527 10.9091C21.2509 6.35997 17.64 2.74909 13.0909 2.24729V0H10.9091V2.24729C6.35997 2.74909 2.74909 6.35997 2.24729 10.9091H0V13.0909H2.24729C2.74909 17.64 6.36002 21.2509 10.9091 21.7527V24H13.0909V21.7527C17.64 21.2509 21.2509 17.64 21.7527 13.0909H24V10.9091H21.7527ZM12 19.6363C7.78366 19.6363 4.36366 16.2163 4.36366 12C4.36366 7.78366 7.78366 4.36366 12 4.36366C16.2163 4.36366 19.6363 7.78361 19.6363 12C19.6363 16.2164 16.2163 19.6363 12 19.6363Z" fill="black"/>
</svg>
