<svg width="18" height="18" viewBox="0 0 18 18" fill="none" xmlns="http://www.w3.org/2000/svg">
<path d="M16.9417 8.0584L15.675 6.79173C15.4583 6.57507 15.2833 6.15007 15.2833 5.85007V4.05007C15.2833 3.31673 14.6833 2.71673 13.95 2.71673H12.1583C11.8583 2.71673 11.4333 2.54173 11.2167 2.32507L9.95 1.0584C9.43334 0.541732 8.58334 0.541732 8.06667 1.0584L6.78334 2.32507C6.575 2.54173 6.15 2.71673 5.84167 2.71673H4.05C3.31667 2.71673 2.71667 3.31673 2.71667 4.05007V5.84173C2.71667 6.14173 2.54167 6.56673 2.325 6.7834L1.05834 8.05007C0.541671 8.56673 0.541671 9.41673 1.05834 9.9334L2.325 11.2001C2.54167 11.4167 2.71667 11.8417 2.71667 12.1417V13.9334C2.71667 14.6667 3.31667 15.2667 4.05 15.2667H5.84167C6.14167 15.2667 6.56667 15.4417 6.78334 15.6584L8.05 16.9251C8.56667 17.4417 9.41667 17.4417 9.93334 16.9251L11.2 15.6584C11.4167 15.4417 11.8417 15.2667 12.1417 15.2667H13.9333C14.6667 15.2667 15.2667 14.6667 15.2667 13.9334V12.1417C15.2667 11.8417 15.4417 11.4167 15.6583 11.2001L16.925 9.9334C17.4667 9.42507 17.4667 8.57507 16.9417 8.0584ZM5.66667 6.50007C5.66667 6.04173 6.04167 5.66673 6.5 5.66673C6.95834 5.66673 7.33334 6.04173 7.33334 6.50007C7.33334 6.9584 6.96667 7.3334 6.5 7.3334C6.04167 7.3334 5.66667 6.9584 5.66667 6.50007ZM6.94167 11.9417C6.81667 12.0667 6.65834 12.1251 6.5 12.1251C6.34167 12.1251 6.18334 12.0667 6.05834 11.9417C5.81667 11.7001 5.81667 11.3001 6.05834 11.0584L11.0583 6.0584C11.3 5.81673 11.7 5.81673 11.9417 6.0584C12.1833 6.30007 12.1833 6.70007 11.9417 6.94173L6.94167 11.9417ZM11.5 12.3334C11.0333 12.3334 10.6583 11.9584 10.6583 11.5001C10.6583 11.0417 11.0333 10.6667 11.4917 10.6667C11.95 10.6667 12.325 11.0417 12.325 11.5001C12.325 11.9584 11.9583 12.3334 11.5 12.3334Z" fill="#D92D20"/>
</svg>
