<svg width="22" height="22" viewBox="0 0 17 17" fill="none" xmlns="http://www.w3.org/2000/svg">
<path d="M15.3415 11.3771L11.6823 9.80887C11.4913 9.72662 11.2827 9.69351 11.0756 9.71254C10.8684 9.73157 10.6694 9.80214 10.4965 9.91782L8.54001 11.222C7.34426 10.6404 6.37647 9.67688 5.78961 8.48372L5.78976 8.48357L7.08935 6.49779C7.20248 6.32539 7.27111 6.12765 7.28911 5.92224C7.30711 5.71683 7.27392 5.51016 7.1925 5.32072L5.62283 1.65839C5.51599 1.40979 5.33149 1.20249 5.09696 1.06752C4.86243 0.932557 4.5905 0.877191 4.32187 0.909714C3.2663 1.04543 2.29623 1.5608 1.5929 2.35953C0.889572 3.15827 0.501079 4.18574 0.5 5.25C0.5 11.4533 5.54669 16.5 11.75 16.5C12.8143 16.4989 13.8418 16.1104 14.6405 15.4071C15.4392 14.7037 15.9546 13.7336 16.0903 12.6781C16.1227 12.4094 16.0673 12.1375 15.9323 11.903C15.7974 11.6685 15.5901 11.484 15.3415 11.3771V11.3771Z" fill="white"/>
</svg>
