<svg width="92" height="125" viewBox="0 0 92 125" fill="none" xmlns="http://www.w3.org/2000/svg">
<path d="M62.5 0C28 0 0 28 0 62.5C0 97 28 125 62.5 125C97 125 125 97 125 62.5C125 28 97 0 62.5 0ZM43.75 37.5C47.1875 37.5 50 40.3125 50 43.75C50 47.1875 47.25 50 43.75 50C40.3125 50 37.5 47.1875 37.5 43.75C37.5 40.3125 40.3125 37.5 43.75 37.5ZM47.0625 84.5625C46.125 85.5 44.9375 85.9375 43.75 85.9375C42.5625 85.9375 41.375 85.5 40.4375 84.5625C38.625 82.75 38.625 79.75 40.4375 77.9375L77.9375 40.4375C79.75 38.625 82.75 38.625 84.5625 40.4375C86.375 42.25 86.375 45.25 84.5625 47.0625L47.0625 84.5625ZM81.25 87.5C77.75 87.5 74.9375 84.6875 74.9375 81.25C74.9375 77.8125 77.75 75 81.1875 75C84.625 75 87.4375 77.8125 87.4375 81.25C87.4375 84.6875 84.6875 87.5 81.25 87.5Z" fill="#F2F4F7"/>
</svg>
