<svg width="20" height="20" viewBox="0 0 20 20" fill="none" xmlns="http://www.w3.org/2000/svg">
<path d="M7.34162 1.66675L4.32495 4.69175" stroke="#98A2B3" stroke-miterlimit="10" stroke-linecap="round" stroke-linejoin="round"/>
<path d="M12.6584 1.66675L15.6751 4.69175" stroke="#98A2B3" stroke-miterlimit="10" stroke-linecap="round" stroke-linejoin="round"/>
<path d="M1.66675 6.54167C1.66675 5 2.49175 4.875 3.51675 4.875H16.4834C17.5084 4.875 18.3334 5 18.3334 6.54167C18.3334 8.33333 17.5084 8.20833 16.4834 8.20833H3.51675C2.49175 8.20833 1.66675 8.33333 1.66675 6.54167Z" stroke="#98A2B3"/>
<path d="M8.1333 11.6667V14.6251" stroke="#98A2B3" stroke-linecap="round"/>
<path d="M11.9666 11.6667V14.6251" stroke="#98A2B3" stroke-linecap="round"/>
<path d="M2.91675 8.33325L4.09175 15.5333C4.35841 17.1499 5.00008 18.3333 7.38341 18.3333H12.4084C15.0001 18.3333 15.3834 17.1999 15.6834 15.6333L17.0834 8.33325" stroke="#98A2B3" stroke-linecap="round"/>
</svg>
