<svg width="16" height="16" viewBox="0 0 16 16" fill="none" xmlns="http://www.w3.org/2000/svg">
<path d="M14.9479 6.0882C14.8855 5.89221 14.7654 5.71958 14.6034 5.59285C14.4414 5.46612 14.245 5.39115 14.0397 5.37775L10.3278 5.11798L8.95086 1.6507C8.87634 1.45901 8.74566 1.2943 8.57593 1.17816C8.4062 1.06201 8.20535 0.999852 7.99969 0.999817H7.99871C7.79337 1.00018 7.59291 1.0625 7.42356 1.17863C7.2542 1.29476 7.12383 1.45928 7.04949 1.6507L5.65203 5.138L1.96062 5.37775C1.75537 5.39115 1.55892 5.46611 1.39691 5.59285C1.2349 5.71958 1.11485 5.89221 1.05242 6.0882C0.986563 6.28697 0.982083 6.50096 1.03956 6.70232C1.09704 6.90367 1.21382 7.08305 1.37469 7.2171L4.21453 9.61749L3.3698 12.9402C3.31158 13.1641 3.32229 13.4002 3.40052 13.6179C3.47876 13.8355 3.62088 14.0245 3.80828 14.16C3.98921 14.2916 4.20557 14.3657 4.42921 14.3727C4.65285 14.3797 4.87341 14.3192 5.06218 14.199L7.99187 12.3431C7.99578 12.3402 7.99968 12.3382 8.00847 12.3431L11.1608 14.3402C11.332 14.4495 11.5321 14.5046 11.7351 14.4984C11.9381 14.4921 12.1345 14.4247 12.2985 14.305C12.4683 14.1822 12.5971 14.0111 12.668 13.8139C12.7389 13.6168 12.7487 13.4028 12.696 13.2L11.7985 9.57013L14.6257 7.2171C14.7865 7.08305 14.9033 6.90367 14.9608 6.70232C15.0183 6.50096 15.0138 6.28697 14.9479 6.0882Z" fill="currentColor"/>
</svg>
