<svg width="20" height="20" viewBox="0 0 20 20" fill="none" xmlns="http://www.w3.org/2000/svg">
<path d="M16.6667 5.86675V14.1334C16.6667 15.4001 16.55 16.3001 16.25 16.9418C16.25 16.9501 16.2417 16.9668 16.2333 16.9751C16.05 17.2084 15.8083 17.3251 15.525 17.3251C15.0833 17.3251 14.55 17.0334 13.975 16.4167C13.2917 15.6834 12.2416 15.7417 11.6416 16.5417L10.8 17.6584C10.4667 18.1084 10.025 18.3334 9.58333 18.3334C9.14167 18.3334 8.69998 18.1084 8.36665 17.6584L7.51668 16.5334C6.92502 15.7417 5.88333 15.6834 5.19999 16.4084L5.19165 16.4167C4.24998 17.4251 3.41668 17.5751 2.93335 16.9751C2.92502 16.9668 2.91667 16.9501 2.91667 16.9418C2.61667 16.3001 2.5 15.4001 2.5 14.1334V5.86675C2.5 4.60008 2.61667 3.70008 2.91667 3.05841C2.91667 3.05008 2.91668 3.04175 2.93335 3.03341C3.40835 2.42508 4.24998 2.57508 5.19165 3.58341L5.19999 3.59175C5.88333 4.31675 6.92502 4.25841 7.51668 3.46675L8.36665 2.34175C8.69998 1.89175 9.14167 1.66675 9.58333 1.66675C10.025 1.66675 10.4667 1.89175 10.8 2.34175L11.6416 3.45842C12.2416 4.25842 13.2917 4.31675 13.975 3.58341C14.55 2.96675 15.0833 2.67508 15.525 2.67508C15.8083 2.67508 16.05 2.80008 16.2333 3.03341C16.25 3.04175 16.25 3.05008 16.25 3.05841C16.55 3.70008 16.6667 4.60008 16.6667 5.86675Z" stroke="#101828" stroke-width="1.5" stroke-linecap="round" stroke-linejoin="round"/>
<path d="M6.66675 8.54175H13.3334" stroke="#101828" stroke-width="1.5" stroke-linecap="round" stroke-linejoin="round"/>
<path d="M6.66675 11.4583H11.6667" stroke="#101828" stroke-width="1.5" stroke-linecap="round" stroke-linejoin="round"/>
</svg>
