<svg width="41" height="40" viewBox="0 0 41 40" fill="none" xmlns="http://www.w3.org/2000/svg">
<g clip-path="url(#clip0_3135_7580)">
<path opacity="0.2" d="M9.55215 17.205L36.9599 4.9502C37.5069 4.70566 38.062 4.5737 38.6066 4.53901C37.6635 2.19226 34.8752 0.813607 32.2722 1.97741L4.86444 14.2323C1.46233 15.7534 1.072 20.4274 4.17464 22.4918L7.29048 24.5563C4.83693 22.4032 6.33997 18.6413 9.55215 17.205Z" fill="#19A648"/>
<path d="M29.5541 39.9952C28.3338 39.9952 27.1227 39.6384 26.07 38.9381L17.6828 33.3575C16.9643 32.8794 16.7695 31.9095 17.2475 31.191C17.7255 30.4726 18.6956 30.2776 19.414 30.7557L27.8012 36.3362C28.7125 36.9427 29.8114 37.0414 30.816 36.6071C31.8205 36.173 32.5017 35.3053 32.6846 34.2265L37.3296 6.82843C37.5284 5.65595 37.0858 4.52114 36.1457 3.79282C35.2054 3.06443 33.9958 2.9195 32.9099 3.40484L5.50209 15.6597C4.43189 16.1382 3.73475 17.1212 3.63724 18.2893C3.53966 19.4574 4.06406 20.5424 5.04004 21.1917L8.8667 23.7378C9.58517 24.2159 9.78002 25.1858 9.30203 25.9043C8.82396 26.6226 7.85392 26.8176 7.13552 26.3396L3.30887 23.7936C1.37066 22.504 0.329202 20.349 0.522961 18.0292C0.716642 15.7094 2.10116 13.7569 4.22649 12.8067L31.6342 0.551896C33.7584 -0.397756 36.2203 -0.102665 38.0595 1.32224C39.8987 2.74699 40.7996 5.05702 40.4109 7.35072L35.7658 34.7487C35.408 36.8595 34.021 38.6267 32.0557 39.4758C31.2508 39.8236 30.4002 39.9952 29.5541 39.9952Z" fill="#19A648"/>
<path d="M12.5328 39.9994C11.6698 39.9994 10.9702 39.2998 10.9702 38.4368V31.2216C10.9702 28.9878 11.8803 26.8051 13.4672 25.233L28.1525 10.6849C28.7655 10.0775 29.755 10.0823 30.3623 10.6953C30.9696 11.3084 30.965 12.2977 30.3519 12.905L15.6666 27.4531C14.668 28.4424 14.0954 29.816 14.0954 31.2216V38.4368C14.0954 39.2998 13.3957 39.9994 12.5328 39.9994Z" fill="#19A648"/>
</g>
<defs>
<clipPath id="clip0_3135_7580">
<rect width="40" height="40" fill="white" transform="translate(0.5)"/>
</clipPath>
</defs>
</svg>
