<svg width="20" height="20" viewBox="0 0 20 20" fill="none" xmlns="http://www.w3.org/2000/svg">
<path d="M17.9417 9.0584L16.675 7.79173C16.4583 7.57507 16.2833 7.15007 16.2833 6.85007V5.05007C16.2833 4.31673 15.6833 3.71673 14.95 3.71673H13.1583C12.8583 3.71673 12.4333 3.54173 12.2167 3.32507L10.95 2.0584C10.4333 1.54173 9.58334 1.54173 9.06667 2.0584L7.78334 3.32507C7.575 3.54173 7.15 3.71673 6.84167 3.71673H5.05C4.31667 3.71673 3.71667 4.31673 3.71667 5.05007V6.84173C3.71667 7.14173 3.54167 7.56673 3.325 7.7834L2.05834 9.05007C1.54167 9.56673 1.54167 10.4167 2.05834 10.9334L3.325 12.2001C3.54167 12.4167 3.71667 12.8417 3.71667 13.1417V14.9334C3.71667 15.6667 4.31667 16.2667 5.05 16.2667H6.84167C7.14167 16.2667 7.56667 16.4417 7.78334 16.6584L9.05 17.9251C9.56667 18.4417 10.4167 18.4417 10.9333 17.9251L12.2 16.6584C12.4167 16.4417 12.8417 16.2667 13.1417 16.2667H14.9333C15.6667 16.2667 16.2667 15.6667 16.2667 14.9334V13.1417C16.2667 12.8417 16.4417 12.4167 16.6583 12.2001L17.925 10.9334C18.4667 10.4251 18.4667 9.57507 17.9417 9.0584ZM6.66667 7.50007C6.66667 7.04173 7.04167 6.66673 7.5 6.66673C7.95834 6.66673 8.33334 7.04173 8.33334 7.50007C8.33334 7.9584 7.96667 8.3334 7.5 8.3334C7.04167 8.3334 6.66667 7.9584 6.66667 7.50007ZM7.94167 12.9417C7.81667 13.0667 7.65834 13.1251 7.5 13.1251C7.34167 13.1251 7.18334 13.0667 7.05834 12.9417C6.81667 12.7001 6.81667 12.3001 7.05834 12.0584L12.0583 7.0584C12.3 6.81673 12.7 6.81673 12.9417 7.0584C13.1833 7.30007 13.1833 7.70007 12.9417 7.94173L7.94167 12.9417ZM12.5 13.3334C12.0333 13.3334 11.6583 12.9584 11.6583 12.5001C11.6583 12.0417 12.0333 11.6667 12.4917 11.6667C12.95 11.6667 13.325 12.0417 13.325 12.5001C13.325 12.9584 12.9583 13.3334 12.5 13.3334Z" fill="#D92D20"/>
</svg>
