<svg width="28" height="28" viewBox="0 0 28 28" fill="none" xmlns="http://www.w3.org/2000/svg">
<path d="M21.4451 19.9491H12.002C10.6403 19.9491 9.43286 19.0556 9.06433 17.7758L5.87255 6.96046C5.75916 6.56883 5.38224 6.30005 4.95177 6.30005H2.45084C1.87023 6.30005 1.40091 5.82968 1.40091 5.25012C1.40091 4.67056 1.87023 4.2002 2.45084 4.2002H4.95177C6.31352 4.2002 7.51989 5.09368 7.88842 6.37355L8.48583 8.39991H24.5445C25.1996 8.39991 25.8212 8.71174 26.2065 9.2346C26.5887 9.75327 26.6989 10.4021 26.5089 11.0153L24.3429 17.8902C23.9187 19.1312 22.7564 19.9491 21.4451 19.9491ZM24.5455 10.4998H24.556H24.5455Z" fill="currentColor"/>
<path d="M12.9501 25.1983C11.7921 25.1983 10.8503 24.2565 10.8503 23.0984C10.8503 21.9403 11.7921 20.9985 12.9501 20.9985C14.1082 20.9985 15.05 21.9403 15.05 23.0984C15.05 24.2565 14.1082 25.1983 12.9501 25.1983ZM12.9501 23.0974V23.0984V23.0974Z" fill="currentColor"/>
<path d="M20.2996 25.1983C19.1416 25.1983 18.1998 24.2565 18.1998 23.0984C18.1998 21.9403 19.1416 20.9985 20.2996 20.9985C21.4577 20.9985 22.3995 21.9403 22.3995 23.0984C22.3995 24.2565 21.4577 25.1983 20.2996 25.1983ZM20.2996 23.0974V23.0984V23.0974Z" fill="currentColor"/>
</svg>
