<svg width="76" height="100" viewBox="0 0 76 100" fill="none" xmlns="http://www.w3.org/2000/svg">
<path d="M83.5496 19.25L53.8496 2.1C48.9996 -0.7 42.9996 -0.7 38.0996 2.1L8.44961 19.25C3.59961 22.05 0.599609 27.25 0.599609 32.9V67.1C0.599609 72.7 3.59961 77.9 8.44961 80.75L38.1496 97.9C42.9996 100.7 48.9996 100.7 53.8996 97.9L83.5996 80.75C88.4496 77.95 91.4496 72.75 91.4496 67.1V32.9C91.3996 27.25 88.3996 22.1 83.5496 19.25ZM45.9996 26.7C52.4496 26.7 57.6496 31.9 57.6496 38.35C57.6496 44.8 52.4496 50 45.9996 50C39.5496 50 34.3496 44.8 34.3496 38.35C34.3496 31.95 39.5496 26.7 45.9996 26.7ZM59.3996 73.3H32.5996C28.5496 73.3 26.1996 68.8 28.4496 65.45C31.8496 60.4 38.4496 57 45.9996 57C53.5496 57 60.1496 60.4 63.5496 65.45C65.7996 68.75 63.3996 73.3 59.3996 73.3Z" fill="#F2F4F7"/>
</svg>
