<svg width="16" height="18" viewBox="0 0 16 18" fill="none" xmlns="http://www.w3.org/2000/svg">
<path d="M14.2583 3.87508L9.30832 1.01675C8.49999 0.550081 7.49999 0.550081 6.68332 1.01675L1.74165 3.87508C0.933319 4.34175 0.433319 5.20842 0.433319 6.15008V11.8501C0.433319 12.7834 0.933319 13.6501 1.74165 14.1251L6.69165 16.9834C7.49999 17.4501 8.49999 17.4501 9.31665 16.9834L14.2667 14.1251C15.075 13.6584 15.575 12.7917 15.575 11.8501V6.15008C15.5667 5.20842 15.0667 4.35008 14.2583 3.87508ZM7.99999 5.11675C9.07499 5.11675 9.94165 5.98342 9.94165 7.05841C9.94165 8.13342 9.07499 9.00008 7.99999 9.00008C6.92499 9.00008 6.05832 8.13342 6.05832 7.05841C6.05832 5.99175 6.92499 5.11675 7.99999 5.11675ZM10.2333 12.8834H5.76665C5.09165 12.8834 4.69999 12.1334 5.07499 11.5751C5.64165 10.7334 6.74165 10.1667 7.99999 10.1667C9.25832 10.1667 10.3583 10.7334 10.925 11.5751C11.3 12.1251 10.9 12.8834 10.2333 12.8834Z" fill="#2464AD"/>
</svg>
